<svg xmlns="http://www.w3.org/2000/svg" width="3000" height="3000" viewBox="0 0 1000 1000">
  <defs>
    <style>
      .cls-1 {
        fill: #110246;
      }

      .cls-1, .cls-2 {
        fill-rule: evenodd;
      }

      .cls-2 {
        fill: #080120;
      }
    </style>
  </defs>
  <path id="Do_me_a_" data-name="Do me a " class="cls-1" d="M390.2,423.228a4.165,4.165,0,0,1-2.035,1.058v1.3h30.986a48.939,48.939,0,0,0,12.663-1.363,22.166,22.166,0,0,0,8.673-4.537q8.835-7.529,8.836-21.892a32.278,32.278,0,0,0-2.973-14.282,22.29,22.29,0,0,0-11.563-11.149q-5.457-2.319-15.636-2.319H388.166v1.3a4.165,4.165,0,0,1,2.035,1.058,2.83,2.83,0,0,1,.569,1.912v47A2.831,2.831,0,0,1,390.2,423.228ZM402.9,379.2h15.237a28.718,28.718,0,0,1,8.88,1.119,13.12,13.12,0,0,1,5.7,3.764q4.236,4.761,4.237,13.712,0,12.371-7.863,16.643-3.668,1.993-10.958,1.993H402.9V379.2Zm61.815,5.371Q456,391.124,456,402.8q0,11.557,8.714,18.229,7.167,5.535,18.039,5.534t18.04-5.534a21.389,21.389,0,0,0,8.674-17.863q0-11.922-8.674-18.595-7.248-5.534-18.121-5.534-10.75.123-17.958,5.534h0Zm29.529,7.609a14.626,14.626,0,0,1,4.115,10.824,14.23,14.23,0,0,1-4.115,10.376,16.814,16.814,0,0,1-23.02,0,15.71,15.71,0,0,1,0-21.2,15.409,15.409,0,0,1,11.49-4.517,15.982,15.982,0,0,1,11.53,4.517h0Zm89.768,3.428v25.825a2.927,2.927,0,0,1-.59,1.955,3.849,3.849,0,0,1-2.014,1.059v1.14h16.113v-1.14a3.963,3.963,0,0,1-2.035-1.1,2.985,2.985,0,0,1-.569-1.951V384.163a2.906,2.906,0,0,1,.569-1.932,4.063,4.063,0,0,1,2.035-1.077v-1.139H578.752v1.139q2,0.448,2,2.116,0,1.343-1.954,4.557l-11.447,20.331L555.98,387.542a8.576,8.576,0,0,1-1.384-4.069,2.344,2.344,0,0,1,1.913-2.319v-1.139H537.255v1.139a4.072,4.072,0,0,1,2.034,1.078,2.91,2.91,0,0,1,.57,1.933v37.272a2.923,2.923,0,0,1-.59,1.953,3.849,3.849,0,0,1-2.014,1.058v1.14h15.137v-1.14a4.281,4.281,0,0,1-2.035-1.118,2.907,2.907,0,0,1-.57-1.932V395.609l16.622,29.979Zm52.164,10.61a2.942,2.942,0,0,1,1.974.581,4.114,4.114,0,0,1,1.078,2.023h1.1V395.68h-1.1a4.289,4.289,0,0,1-1.119,2.035,2.907,2.907,0,0,1-1.933.57H619v-10.01h27.67a3.012,3.012,0,0,1,1.973.561,4.007,4.007,0,0,1,1.078,2.043h1.1V377.411h-1.1a4.052,4.052,0,0,1-1.078,2.034,2.979,2.979,0,0,1-1.973.57H605.492v1.139a4.415,4.415,0,0,1,2.035,1.1,2.83,2.83,0,0,1,.569,1.912v37.272a2.923,2.923,0,0,1-.59,1.953,3.845,3.845,0,0,1-2.014,1.058v1.14h42.44a2.921,2.921,0,0,1,1.953.59,3.848,3.848,0,0,1,1.058,2.014h1.139V414.723h-1.139a4.018,4.018,0,0,1-1.078,2.044,2.943,2.943,0,0,1-1.933.561H619V406.219h17.171Zm80.666,12.636a6.891,6.891,0,0,1,1.017,3.121q0,2.026-2.642,2.472v1.14h18.616v-1.14a4.824,4.824,0,0,1-2.482-1.108,15.736,15.736,0,0,1-2.238-3.449l-17.253-32.674a7.492,7.492,0,0,1-1.017-3.3q0-1.871,2.238-2.767v-1.139h-17.7v1.139q2.279,0.936,2.278,2.6a7.818,7.818,0,0,1-.936,3.337l-16.642,33.691a10,10,0,0,1-1.77,2.726,4.339,4.339,0,0,1-2.3.936v1.14h16.744v-1.14q-2.605-.528-2.6-2.482a7.139,7.139,0,0,1,.855-2.807l2.361-4.965h20.958Zm-20.365-11.049,7.1-14.658,7.463,14.658H696.473Z"/>
  <path id="F_" data-name="F  " class="cls-2" d="M496.257,260.876q-4.941-10.425-18.321-9.853-24.144,1.158-30.536,9.537-7.285,8.959-13.966,10.114-39.554,5.96-47.117,5.955Q370.029,262.1,363.344,262.1q-4.66,0-13.956,18.7a917.6,917.6,0,0,0-162,29.123q-60.795,16.608-57.854,52.42,2.037,24.173,7.034,36.985,7.034,18.353,30.174,51.248,3.81,5.541,8.5,5.536,6.728,0,6.736-7.285a13.758,13.758,0,0,0-2.056-7q-19.386-35.855-19.381-52.476,0-15.437,16.906-30.612,16.037-14.277,65.893-25.94a576.162,576.162,0,0,1,90.085-13.994q-46.35,146.85-47.806,151.791-27.717,5.862-29.5,15.538a20.376,20.376,0,0,0-.3,3.517q0,0.879,12.5,32.537Q259,555.322,252.3,570.431q-20.391-3.768-23.884,8.43a436.487,436.487,0,0,0-11.361,54.049q-2.916,21.8,8.43,25.578,18.9,6.391,25.01,6.392,9.3,0,14.245-21.819Q291.2,525.52,301.666,498.742q19.483-2.373,82.873-2.382,11.334,0,15.408,7.871a9.8,9.8,0,0,0,8.43,5.536q3.2,0.294,19.483-2.624,22.68-3.768,22.684-13.668a17.453,17.453,0,0,0-.576-4.075q-3.183-16.86-4.346-19.195-5.5-11.053-22.274-10.765-56.147,1.131-110.833,5.89,32.169-113.355,49.275-149.995,65.5-5.5,110.433-11.882,19.986-2.889,20.582-3.182,10.132-2.889,10.141-11.3a21.413,21.413,0,0,0-.586-4.634q-5.526-22.023-6.1-23.466h0Z"/>
  <path id="avor_" data-name="avor " class="cls-1" d="M370.557,617.57a12.846,12.846,0,0,1-1.394,1.878q1.09,2.426,2,4.543l1.636,3.817c0.324,0.566.585,1.071,0.787,1.514a3.1,3.1,0,0,1,.3,1.272,17.571,17.571,0,0,1-.242,2.544,20.675,20.675,0,0,0-4.18,5.755,14.539,14.539,0,0,0-1.393,6.239q0,5.937,2.787,8.783t8.6,2.847a7.789,7.789,0,0,0,2.666-.787q1.817-.786,4.361-2.12,4-2.181,7.208-4.24a52.378,52.378,0,0,0,5.634-4.12q1.209-1.209,4.119-4t7.148-7.148q3.149-2.544,5.512-4.362l3.938-3.028a24.409,24.409,0,0,1,1.7-1.757q0.726-.664,1.332-1.272a6.506,6.506,0,0,1,1.272,2.362,8.844,8.844,0,0,1,.3,2.241q0.728,9.087,4.967,13.569t12.115,4.483a17.741,17.741,0,0,0,6.785-1.393,31.123,31.123,0,0,0,7.027-4.18,70.055,70.055,0,0,0,5.754-5.149q2.726-2.726,5.512-5.27a46.4,46.4,0,0,0-1.756-4.785q-1.153-2.727-2.847-6.361a11.5,11.5,0,0,1-1.757,1.454,14.185,14.185,0,0,1-1.393.848q-0.849.971-1.636,1.938t-1.635,2.06a13.608,13.608,0,0,1-2.12,1.575,4.123,4.123,0,0,1-2.12.606,6.934,6.934,0,0,1-5.876-3.09,10.938,10.938,0,0,1-2.12-6.966q0-5.571.242-11.63a12.309,12.309,0,0,0-1.575-6,4.371,4.371,0,0,0-3.877-2q-4.12,0-8.965,3.21a51.1,51.1,0,0,0-10.419,9.874q-1.091.728-1.938,1.212l-1.7.969a38.487,38.487,0,0,0-3.695,3.089q-2.607,2.363-6.724,6.118a56.627,56.627,0,0,1-6.421,5.452,20.537,20.537,0,0,1-5.573,2.908l-0.848-1.091q3.512-4.966,5.694-8a38.779,38.779,0,0,1,3.029-3.876q6.783-5.936,10.843-10.177a28.191,28.191,0,0,0,5.27-6.906,53.254,53.254,0,0,0,4.482-3.634q1.695-1.573,2.3-2.181,0.846-1.209,2.06-2.786a55.038,55.038,0,0,0,6.542-5.634,58.479,58.479,0,0,0,4.725-5.391q3.512-2.664,6.542-4.846a8.152,8.152,0,0,0,2.847-3.271,10.459,10.459,0,0,0,.908-4.483,4.743,4.743,0,0,0-1.514-3.755,6.922,6.922,0,0,0-4.664-1.333q-5.7,0-13.993,5.21T407.81,584.557a35.69,35.69,0,0,1-4.482,3.695q-2.061,1.4-3.392,2.12-2.788,2.426-4.6,4.24a39.291,39.291,0,0,0-2.787,3.029,16.536,16.536,0,0,0-3.21,1.939,8.386,8.386,0,0,0-2.241,2.665,21.063,21.063,0,0,1-1.939,2.968q-0.849,1.031-1.453,1.636l-11.025,7.269Q371.467,616.179,370.557,617.57Zm94.194,7.693a48.016,48.016,0,0,1,2.059,5.331q6.661-7.269,10.3-11.025t4.483-4.119l1.211,0.727-0.848,2.787a10.314,10.314,0,0,1,.424,3.271q0.06,2.424.061,6.3a31.767,31.767,0,0,0,.848,5.27,28.566,28.566,0,0,0,1.211,3.817,30.576,30.576,0,0,1-.484,3.15q0,9.935,3.392,14.9t9.934,4.967a7.743,7.743,0,0,0,3.817-.908,9.973,9.973,0,0,0,2.968-2.605q1.209-1.453,2.544-2.908t2.544-3.028a55.047,55.047,0,0,0,8.6-9.268q2.785-4.058,2.786-6.967,1.454-1.572,6.724-11.145t5.512-11.146a50.289,50.289,0,0,1,1.7-6.421,48.8,48.8,0,0,0,4.665-9.086,21.72,21.72,0,0,0,1.514-7.391,43.909,43.909,0,0,0,3.937-9.994,40.154,40.154,0,0,0,1.272-9.874,3.4,3.4,0,0,0-.484-2,1.967,1.967,0,0,0-1.7-.666,7.854,7.854,0,0,0-6.724,3.452q-2.484,3.453-3.574,10.237-0.486,3.879-3.634,11.57T520.6,612.179a151.011,151.011,0,0,1-10.3,18.476q-4.242,6.119-6.542,6.118-1.817,0-2.907-7.088t-1.091-21.5c0.243-.888.443-1.736,0.606-2.544q-0.363-1.091-.606-1.938c-0.163-.564-0.323-1.049-0.484-1.454a35.689,35.689,0,0,0,.908-7.33q0.181-4.542.182-11.327a22.128,22.128,0,0,0-.787-6.845q-0.79-2.241-2.363-2.241-1.212,0-6.057,3.331t-5.21,3.938q-2.424,5.572-4.422,9.813t-3.453,7.026a25.606,25.606,0,0,1-3.21,5.27,61.892,61.892,0,0,1-5.634,6.361,73.5,73.5,0,0,0-5.027,5.876,27.888,27.888,0,0,0-2.242,3.331Q463.54,622.6,464.751,625.263Zm79.717-.3q1.212,2.847,2.18,5.633a10.2,10.2,0,0,0,1.575-2.181,9.936,9.936,0,0,1,.848-1.453q4.24-3.392,6.542-5.21t2.908-1.817a2.047,2.047,0,0,1,1.514.545,1.886,1.886,0,0,1,.546,1.393,37.553,37.553,0,0,1-1.333,5.634,30.226,30.226,0,0,0-1.333,7.693,18.314,18.314,0,0,0,5.573,12.963q5.571,5.816,12.479,5.815a11.224,11.224,0,0,0,2.847-.485,11.306,11.306,0,0,1,2.362-.484,15.084,15.084,0,0,0,4.543-.788,42.837,42.837,0,0,0,5.513-2.241,41.833,41.833,0,0,0,9.51-5.512,39.386,39.386,0,0,0,7.329-7.33,9.211,9.211,0,0,0,2.908,3.756,7.576,7.576,0,0,0,4.6,1.332,12.734,12.734,0,0,0,4.906-1.029,21.287,21.287,0,0,0,5.27-3.332q2.3-1.7,4.362-3.513t4.24-3.756q-1.212-2.786-2.362-5.633t-2.363-5.513a19.5,19.5,0,0,1-2.483,1.817,3.926,3.926,0,0,1-2,.606,2.023,2.023,0,0,1-1.575-.666,6.009,6.009,0,0,1-1.091-2.241,14.578,14.578,0,0,0,2.6-3.514,33.581,33.581,0,0,0,2.605-6.057,42.218,42.218,0,0,0,1.575-6.058,28.884,28.884,0,0,0,.484-4.846q0-10.9-4.422-16.294T612.069,576.8a17.794,17.794,0,0,0-3.876.97q-3.03.97-8.36,3.028l-0.727-1.09q1.332-2.785,2.545-5.573a2.347,2.347,0,0,0-1.515-1.878,9.739,9.739,0,0,0-4.058-.666,10.4,10.4,0,0,0-4.483.969,17.279,17.279,0,0,0-4,2.665q-1.7,1.7-3.332,3.514t-3.452,3.634q-1.455,1.335-3.15,2.726t-3.392,2.968a26.575,26.575,0,0,0-3.332,3.453,15.611,15.611,0,0,0-2,3.089q-5.211,4.606-8.723,7.815a55.623,55.623,0,0,0-5.209,5.27l-9.329,6.421q-1.209,1.7-2.12,3.089a13.9,13.9,0,0,1-1.757,2.241Q543.257,622.115,544.468,624.961Zm61.544-26.775a10.348,10.348,0,0,1,2.665.788,5.33,5.33,0,0,1,1.939,2.6,46.751,46.751,0,0,1,2.059,5.754l-2.181,6.906a39.963,39.963,0,0,1-1.211,4.058,5.064,5.064,0,0,1-1.575,2.363q-1.7,2.061-3.634,4.361a32.514,32.514,0,0,1-8.784,9.268,18.157,18.157,0,0,1-10.237,3.089q-3.516,0-5.21-1.7a6.907,6.907,0,0,1-1.7-5.088,20.807,20.807,0,0,1,.606-4.483,58.226,58.226,0,0,1,1.939-6.42,31.691,31.691,0,0,1,2.665-6.482q1.332-2.241,2.544-2.362a12.42,12.42,0,0,0,3.453-1.151,10.408,10.408,0,0,0,2.847-2.242q2.181-3.27,3.877-6.057a17.033,17.033,0,0,1,2.241-2.847,4.369,4.369,0,0,1,1.757-1.272Q603.95,597.763,606.012,598.186Zm26.047,26.9q1.212,2.726,2.181,5.512a10.239,10.239,0,0,0,1.575-2.181q0.483-.967.727-1.453a48.352,48.352,0,0,0,6.421-4.968,20.757,20.757,0,0,0,3.513-4.119,21.66,21.66,0,0,0,4.6-3.755,91.364,91.364,0,0,0,6.3-7.148,50.922,50.922,0,0,1,6.421-6.664,35.79,35.79,0,0,1,5.815-4.119,7.677,7.677,0,0,1,6,3.877q2,3.393,2,9.813a57.066,57.066,0,0,1-1.394,11.752A118.007,118.007,0,0,1,672.16,635.8a27.136,27.136,0,0,1-1.454,3.332q-0.849,1.635-1.575,3.211a29.714,29.714,0,0,0-1.514,3.816,10.6,10.6,0,0,0-.545,3.089,5.272,5.272,0,0,0,2.544,4.907q2.544,1.516,7.632,1.514a22.05,22.05,0,0,0,5.573-2.544q9.205-5.571,15.81-9.874t10.722-7.329q1.937-1.695,3.332-3.029t2.483-2.3q-1.212-3.149-2.544-5.936t-2.3-5.21a18.9,18.9,0,0,1-3.271,2.241q-1.335.668-7.754,6.967a32.021,32.021,0,0,1-4.724,3.816,7.341,7.341,0,0,1-3.756,1.393,1.71,1.71,0,0,1-1.151-.363,1.208,1.208,0,0,1-.424-0.97q0-4.6,3.756-13.629t3.755-13.872A44.447,44.447,0,0,0,694.33,589.4a21.843,21.843,0,0,0-7.269-10.055q-0.608-.483-1.938-1.333-2.667-2.664-5.512-5.088a10.389,10.389,0,0,0-6.967-2.423q-3.878,0-10.116,4.119t-7.814,7.148l1.212,5.815a53.479,53.479,0,0,1-8.178,12.539,110.126,110.126,0,0,1-14.477,13.993q-1.936,2.788-3.877,5.33Q630.848,622.356,632.059,625.082Z"/>
</svg>
